<svg width="420" height="420" viewBox="0 0 420 420" fill="none" xmlns="http://www.w3.org/2000/svg">
<g filter="url(#filter0_d_897_82)">
<path d="M416 206C416 319.771 323.771 412 210 412C96.2293 412 4 319.771 4 206C4 92.2293 96.2293 0 210 0C323.771 0 416 92.2293 416 206Z" fill="white"/>
<path fill-rule="evenodd" clip-rule="evenodd" d="M210 372C301.679 372 376 297.679 376 206C376 114.321 301.679 40 210 40C118.321 40 44 114.321 44 206C44 297.679 118.321 372 210 372ZM210 412C323.771 412 416 319.771 416 206C416 92.2293 323.771 0 210 0C96.2293 0 4 92.2293 4 206C4 319.771 96.2293 412 210 412Z" fill="#7496FF"/>
<path d="M107 162V262H245.5V162H107Z" fill="white"/>
<g clip-path="url(#clip0_897_82)">
<path fill-rule="evenodd" clip-rule="evenodd" d="M108.016 118.886C111.273 115.63 115.69 113.8 120.296 113.8H298.696C303.302 113.8 307.72 115.63 310.976 118.886C314.233 122.143 316.063 126.561 316.063 131.166V250.1C316.063 254.706 314.233 259.123 310.976 262.38C307.72 265.637 303.302 267.466 298.696 267.466H120.296C115.69 267.466 111.273 265.637 108.016 262.38C104.759 259.123 102.93 254.706 102.93 250.1V131.166C102.93 126.561 104.759 122.143 108.016 118.886ZM120.296 118.8C117.017 118.8 113.871 120.103 111.552 122.422C109.233 124.741 107.93 127.887 107.93 131.166V250.1C107.93 253.38 109.233 256.525 111.552 258.844C113.871 261.164 117.017 262.466 120.296 262.466H298.696C301.976 262.466 305.122 261.164 307.441 258.844C309.76 256.525 311.063 253.38 311.063 250.1V131.166C311.063 127.887 309.76 124.741 307.441 122.422C305.122 120.103 301.976 118.8 298.696 118.8H120.296ZM261.53 312.066H157.463V307.066H261.53V312.066Z" fill="#3366FF"/>
<g filter="url(#filter1_d_897_82)">
<path d="M168.682 179.883L163.896 182.695L174.499 226.984L180.493 227.4L168.682 179.883Z" fill="#1E3A8E"/>
<path d="M150.633 157.752L164.536 156.384L145.529 227.321L132.058 227.321L150.633 157.752Z" fill="#386AFF"/>
<path d="M164.545 156.275L173.002 160.726L156.087 227.149L145.406 227.149L164.545 156.275Z" fill="#7496FF"/>
<path d="M173.036 160.762L164.341 165.392L180.324 227.278L190.958 227.104L173.036 160.762Z" fill="#7496FF"/>
<path d="M201 156H208C221.807 156 233 167.193 233 181V201.532C233 215.129 222.132 226.234 208.537 226.526L201 226.688V156Z" fill="#386AFF"/>
<path d="M210.104 226.439C213.757 226.439 217.374 225.53 220.749 223.763C224.124 221.996 227.191 219.406 229.774 216.141C232.357 212.876 234.406 208.999 235.804 204.733C237.202 200.467 237.922 195.895 237.922 191.278C237.922 186.66 237.202 182.088 235.804 177.822C234.406 173.556 232.357 169.679 229.774 166.414C227.191 163.149 224.124 160.559 220.749 158.792C217.374 157.025 213.757 156.116 210.104 156.116L210.104 191.278L210.104 226.439Z" fill="#7496FF"/>
<path d="M214.618 210.079C216.839 210.079 219.038 209.591 221.09 208.644C223.142 207.696 225.007 206.306 226.577 204.555C228.148 202.803 229.394 200.724 230.244 198.436C231.094 196.147 231.531 193.695 231.531 191.218C231.531 188.741 231.094 186.288 230.244 184C229.394 181.711 228.148 179.632 226.577 177.88C225.007 176.129 223.142 174.74 221.09 173.792C219.038 172.844 216.839 172.356 214.618 172.356L214.618 191.218L214.618 210.079Z" fill="white"/>
<path d="M245 156H257C270.807 156 282 167.193 282 181V201.638C282 215.445 270.807 226.638 257 226.638H246L245 156Z" fill="#386AFF"/>
<path d="M258.174 226.439C261.827 226.439 265.445 225.53 268.82 223.763C272.195 221.996 275.261 219.406 277.845 216.141C280.428 212.876 282.477 208.999 283.875 204.733C285.273 200.467 285.992 195.895 285.992 191.278C285.992 186.66 285.273 182.088 283.875 177.822C282.477 173.556 280.428 169.679 277.845 166.414C275.261 163.149 272.195 160.559 268.82 158.792C265.445 157.025 261.827 156.116 258.174 156.116L258.174 191.278L258.174 226.439Z" fill="#7496FF"/>
<path d="M262.688 210.079C264.909 210.079 267.109 209.591 269.161 208.644C271.213 207.696 273.077 206.306 274.648 204.555C276.218 202.803 277.464 200.724 278.314 198.436C279.164 196.147 279.602 193.695 279.602 191.218C279.602 188.741 279.164 186.288 278.314 184C277.464 181.711 276.218 179.632 274.648 177.88C273.077 176.129 271.213 174.74 269.161 173.792C267.109 172.844 264.909 172.356 262.688 172.356L262.688 191.218L262.688 210.079Z" fill="white"/>
</g>
<path d="M264.952 278L269.109 278.033V301.314L264.952 298.122L249.985 286.581V301.314H245.828V278.1L249.985 281.293L264.952 292.833V278Z" fill="#3366FF"/>
<path d="M236.999 290.538L240.324 297.19L242.453 301.347H237.797L235.668 297.19L233.44 292.833L233.34 292.634C232.608 291.436 231.311 290.638 229.815 290.638H225.657V301.347H221.5V278.066H236.2C237.93 278.066 239.493 278.765 240.624 279.896C241.755 281.026 242.453 282.59 242.453 284.319C242.453 286.847 240.956 289.042 238.795 290.04C238.229 290.306 237.63 290.472 236.999 290.538ZM225.657 286.514L236.2 286.481C236.5 286.481 236.799 286.414 237.065 286.281C237.83 285.949 238.329 285.184 238.329 284.352C238.329 283.587 237.93 283.055 237.697 282.822C237.431 282.556 236.932 282.224 236.2 282.224H225.657V286.514Z" fill="#3366FF"/>
<path d="M217.399 297.124L219.528 301.281H214.872H211.038H207.655H202.724H200.437H195.781L197.91 297.124L207.655 278L217.399 297.124Z" fill="#3366FF"/>
<path d="M176.8 282.157C175.635 282.157 174.671 283.122 174.671 284.286V286.448H189.637V290.605H174.671V294.995C174.671 296.159 175.635 297.124 176.8 297.124H193.795V301.281H176.8C173.341 301.281 170.547 298.454 170.547 294.995V284.286C170.547 280.827 173.341 278 176.8 278H193.795V282.157H176.8Z" fill="#3366FF"/>
<path d="M154.987 297.124L167.193 297.157V301.314H155.386C154.222 301.314 149.977 301.314 148.808 301.314C147.9 301.314 148.003 299.202 148.004 297.384C148.003 296.214 148.003 295.062 148.003 293.898V278.033H152.16V294.297C152.16 296.864 152.16 297.124 154.987 297.124Z" fill="#3366FF"/>
</g>
<path fill-rule="evenodd" clip-rule="evenodd" d="M210 392C312.725 392 396 308.725 396 206C396 103.275 312.725 20 210 20C107.275 20 24 103.275 24 206C24 308.725 107.275 392 210 392ZM210 412C323.771 412 416 319.771 416 206C416 92.2293 323.771 0 210 0C96.2293 0 4 92.2293 4 206C4 319.771 96.2293 412 210 412Z" fill="#3366FF"/>
</g>
<defs>
<filter id="filter0_d_897_82" x="0" y="0" width="420" height="420" filterUnits="userSpaceOnUse" color-interpolation-filters="sRGB">
<feFlood flood-opacity="0" result="BackgroundImageFix"/>
<feColorMatrix in="SourceAlpha" type="matrix" values="0 0 0 0 0 0 0 0 0 0 0 0 0 0 0 0 0 0 127 0" result="hardAlpha"/>
<feOffset dy="4"/>
<feGaussianBlur stdDeviation="2"/>
<feComposite in2="hardAlpha" operator="out"/>
<feColorMatrix type="matrix" values="0 0 0 0 0 0 0 0 0 0 0 0 0 0 0 0 0 0 0.25 0"/>
<feBlend mode="normal" in2="BackgroundImageFix" result="effect1_dropShadow_897_82"/>
<feBlend mode="normal" in="SourceGraphic" in2="effect1_dropShadow_897_82" result="shape"/>
</filter>
<filter id="filter1_d_897_82" x="92.0547" y="146" width="203.938" height="121.4" filterUnits="userSpaceOnUse" color-interpolation-filters="sRGB">
<feFlood flood-opacity="0" result="BackgroundImageFix"/>
<feColorMatrix in="SourceAlpha" type="matrix" values="0 0 0 0 0 0 0 0 0 0 0 0 0 0 0 0 0 0 127 0" result="hardAlpha"/>
<feOffset dx="-15" dy="15"/>
<feGaussianBlur stdDeviation="12.5"/>
<feComposite in2="hardAlpha" operator="out"/>
<feColorMatrix type="matrix" values="0 0 0 0 0 0 0 0 0 0 0 0 0 0 0 0 0 0 0.25 0"/>
<feBlend mode="normal" in2="BackgroundImageFix" result="effect1_dropShadow_897_82"/>
<feBlend mode="normal" in="SourceGraphic" in2="effect1_dropShadow_897_82" result="shape"/>
</filter>
<clipPath id="clip0_897_82">
<rect width="223" height="223" fill="white" transform="translate(98 94)"/>
</clipPath>
</defs>
</svg>
