<svg width="291" height="90" viewBox="0 0 291 90" fill="none" xmlns="http://www.w3.org/2000/svg">
<path d="M201.492 0L246.164 0.127998C270.868 0.127998 290.964 20.096 290.964 44.8C290.964 55.808 286.996 65.92 280.34 73.728C279.572 74.624 278.676 75.52 277.78 76.416C269.716 84.608 258.58 89.6 246.292 89.6H201.492V0ZM217.364 16.128V73.728C217.364 54 217.364 60.8 217.364 44.928C217.364 29.056 217.364 39 217.364 16.128Z" fill="#3366FF"/>
<path d="M99.1172 0L143.789 0.127998C168.493 0.127998 188.589 20.096 188.589 44.8C188.589 55.808 184.621 65.92 177.965 73.728C177.197 74.624 176.301 75.52 175.405 76.416C167.341 84.608 156.205 89.6 143.917 89.6H99.1172V0ZM114.989 16.128V73.728C114.989 55.6001 114.989 60.8 114.989 44.928C114.989 29.056 114.989 34.1001 114.989 16.128Z" fill="#3366FF"/>
<path d="M83.2 73.6L91.392 89.6H73.472H61.5H45.696H30H17.92H0L8.192 73.6L45.696 0L83.2 73.6Z" fill="#3366FF"/>
</svg>
