<svg width="968" height="1038" viewBox="0 0 968 1038" fill="none" xmlns="http://www.w3.org/2000/svg">
<path d="M759.977 539.274C766.612 543.273 766.377 552.971 759.556 556.644L252.938 829.438C246.225 833.053 238.098 828.127 238.198 820.503L245.023 297.144C245.113 290.295 251.905 285.561 258.361 287.848L462.158 360.031C462.793 360.256 463.404 360.545 463.981 360.893L759.977 539.274Z" fill="#EBF0FF"/>
<g filter="url(#filter0_d_954_293)">
<path d="M702.164 500.423C708.831 504.272 708.831 513.895 702.164 517.744L255.039 775.891C248.372 779.74 240.039 774.929 240.039 767.231L240.039 250.936C240.039 243.238 248.372 238.426 255.039 242.275L702.164 500.423Z" fill="white"/>
</g>
<defs>
<filter id="filter0_d_954_293" x="0.0390625" y="0.920898" width="967.125" height="1036.33" filterUnits="userSpaceOnUse" color-interpolation-filters="sRGB">
<feFlood flood-opacity="0" result="BackgroundImageFix"/>
<feColorMatrix in="SourceAlpha" type="matrix" values="0 0 0 0 0 0 0 0 0 0 0 0 0 0 0 0 0 0 127 0" result="hardAlpha"/>
<feOffset dx="10" dy="10"/>
<feGaussianBlur stdDeviation="125"/>
<feComposite in2="hardAlpha" operator="out"/>
<feColorMatrix type="matrix" values="0 0 0 0 0 0 0 0 0 0 0 0 0 0 0 0 0 0 0.1 0"/>
<feBlend mode="normal" in2="BackgroundImageFix" result="effect1_dropShadow_954_293"/>
<feBlend mode="normal" in="SourceGraphic" in2="effect1_dropShadow_954_293" result="shape"/>
</filter>
</defs>
</svg>
